<svg width="1024" height="1024" viewBox="0 0 1024 1024" fill="none" xmlns="http://www.w3.org/2000/svg">
<path d="M210.69 374.248H253.815V573.863C231.693 578.063 215.45 579.743 197.809 579.743C145.161 579.742 117.718 555.942 117.718 510.295C117.718 466.329 146.843 437.768 191.927 437.768C198.927 437.768 204.248 438.326 210.69 440.006V374.248ZM210.69 474.728C205.65 473.049 201.449 472.489 196.129 472.489C174.286 472.489 161.684 485.932 161.684 509.453C161.684 532.418 173.726 545.018 195.849 545.018C200.608 545.018 204.53 544.738 210.69 543.9V474.728Z" fill="white"/>
<path d="M322.421 440.846V540.816C322.421 575.261 319.901 591.782 312.341 606.065C305.338 619.789 296.096 628.467 277.055 637.99L237.01 618.947C256.052 609.987 265.293 602.148 271.173 590.102C277.335 577.781 279.297 563.499 279.297 525.975V440.846H322.421ZM279.297 374.477H322.421V418.723H279.297V374.477Z" fill="white"/>
<path d="M348.469 450.646C367.514 441.688 385.714 437.768 405.597 437.768C427.72 437.768 442.281 443.646 448.723 455.129C452.361 461.569 453.481 469.969 453.481 487.894V575.541C434.157 578.342 409.796 580.303 391.875 580.303C355.751 580.303 339.507 567.697 339.507 539.696C339.507 509.451 361.07 495.45 413.998 490.968V481.448C413.998 473.608 410.077 470.809 399.155 470.809C383.194 470.809 365.272 475.289 348.467 483.972L348.469 450.646ZM415.958 519.255C387.393 522.055 378.152 526.537 378.152 537.738C378.152 546.138 383.474 550.058 395.235 550.058C401.677 550.058 407.555 549.5 415.958 548.1V519.255Z" fill="white"/>
<path d="M471.799 447.275C497.281 440.555 518.283 437.477 539.566 437.477C561.689 437.477 577.651 442.515 587.176 452.318C596.136 461.556 598.934 471.637 598.934 493.203V577.771H555.809V494.883C555.809 478.362 550.208 472.198 534.808 472.198C528.927 472.198 523.607 472.758 514.923 475.279V577.771H471.799V447.275Z" fill="white"/>
<path d="M618.385 601.586C633.509 609.426 648.63 613.065 664.591 613.065C692.872 613.065 704.914 601.586 704.914 574.141C704.914 573.861 704.914 573.581 704.914 573.301C696.514 577.5 688.112 579.181 676.913 579.181C639.108 579.181 615.021 554.258 615.021 514.775C615.021 465.765 650.588 438.046 713.593 438.046C732.077 438.046 749.16 440.004 769.883 444.204L755.116 475.311C743.634 473.071 754.197 475.011 745.52 474.171V478.653L746.078 496.852L746.356 520.377C746.636 526.255 746.636 532.137 746.918 538.018C746.918 543.338 746.918 545.86 746.918 549.78C746.918 586.745 743.838 604.106 734.597 618.387C721.155 639.391 697.912 649.752 664.869 649.752C648.066 649.752 633.507 647.232 618.383 641.35V601.586H618.385ZM704.076 472.769C703.516 472.769 702.958 472.769 702.678 472.769H699.596C691.197 472.489 681.397 474.727 674.673 478.928C664.314 484.81 658.99 495.452 658.99 510.573C658.99 532.137 669.634 544.458 688.675 544.458C694.556 544.458 699.318 543.336 704.916 541.658V538.576V526.817C704.916 521.777 704.638 516.173 704.638 510.295L704.36 490.414L704.078 476.131V472.769H704.076Z" fill="white"/>
<path d="M836.832 437.206C879.956 437.206 906.281 464.371 906.281 508.335C906.281 553.422 878.839 581.705 835.152 581.705C792.024 581.705 765.421 554.54 765.421 510.856C765.423 465.487 792.868 437.206 836.832 437.206ZM835.988 546.978C852.513 546.978 862.315 533.256 862.315 509.453C862.315 485.932 852.793 471.929 836.274 471.929C819.189 471.929 809.385 485.654 809.385 509.453C809.387 533.258 819.189 546.978 835.988 546.978Z" fill="white"/>
</svg>
