<svg width="1024" height="1024" viewBox="0 0 1024 1024" fill="none" xmlns="http://www.w3.org/2000/svg">
<path d="M512 511.677C512 485.98 522.009 461.335 539.825 443.164C557.641 424.993 581.804 414.785 607 414.785C632.196 414.785 656.359 424.993 674.175 443.164C691.991 461.335 702 485.98 702 511.677C702 537.375 691.991 562.02 674.175 580.191C656.359 598.362 632.196 608.57 607 608.57C581.804 608.57 557.641 598.362 539.825 580.191C522.009 562.02 512 537.375 512 511.677V511.677Z" stroke="white" stroke-width="35"/>
<path d="M322 705.462C322 679.765 332.009 655.12 349.825 636.949C367.641 618.778 391.804 608.57 417 608.57H512V705.462C512 731.16 501.991 755.805 484.175 773.975C466.359 792.146 442.196 802.355 417 802.355C391.804 802.355 367.641 792.146 349.825 773.975C332.009 755.805 322 731.16 322 705.462Z" stroke="white" stroke-width="35"/>
<path d="M512 221V414.785H607C632.196 414.785 656.359 404.577 674.175 386.406C691.991 368.235 702 343.59 702 317.892C702 292.195 691.991 267.55 674.175 249.379C656.359 231.208 632.196 221 607 221H512Z" stroke="white" stroke-width="35"/>
<path d="M322 317.892C322 343.59 332.009 368.235 349.825 386.406C367.641 404.577 391.805 414.785 417 414.785H512V221H417C391.805 221 367.641 231.208 349.825 249.379C332.009 267.55 322 292.195 322 317.892Z" stroke="white" stroke-width="35"/>
<path d="M322 511.677C322 537.375 332.009 562.02 349.825 580.191C367.641 598.362 391.804 608.57 417 608.57H512V414.785H417C391.804 414.785 367.641 424.993 349.825 443.164C332.009 461.335 322 485.98 322 511.677Z" stroke="white" stroke-width="35"/>
</svg>
