<svg width="1024" height="1024" viewBox="0 0 1024 1024" fill="none" xmlns="http://www.w3.org/2000/svg">
<path d="M402.397 594.871C381.648 578.546 359.506 562.903 344.379 540.86C312.539 501.991 288.032 456.998 271.276 409.707C261.144 378.954 257.677 345.985 244.609 316.425C230.957 294.949 246.961 271.489 270.482 264.666C280.945 262.65 299.357 252.77 277.133 259.839C257.204 274.453 255.283 246.561 275.715 244.794C289.66 242.945 294.793 231.533 290.019 221.262C275.046 211.493 326.316 200.777 300.515 186.205C273.656 157.216 338.102 151.636 322.198 184.563C318.396 209.879 367.244 179.913 355.901 209.152C367.426 223.197 399.045 212.355 398.25 232.046C415.034 233.201 420.795 247.312 436.535 248.399C452.874 255.774 482.462 261.577 488.012 279.975C471.816 292.794 434.323 253.494 432.513 288.982C437.411 341.417 436.161 395.431 455.339 445.362C464.41 475.592 486.413 499.387 506.271 522.936C525.282 545.994 551.029 562.236 577.276 575.903C600.294 586.758 625.108 593.951 650.2 598.476C660.372 590.695 678.338 561.762 694.203 573.954C694.969 587.677 662.712 602.623 692.689 601.105C710.306 595.79 722.512 614.715 737.012 597.639C750.372 613.464 792.54 587.535 783.035 619.881C770.177 628.175 751.43 623.162 738.558 634.577C717.336 623.971 700.438 644.053 676.935 641.52C650.841 646.195 624.285 648.076 597.832 648.115C554.424 644.691 510.101 643.245 468.809 628.132C445.542 621.37 422.844 608.12 402.397 594.871ZM439.054 610.764C461.766 620.575 483.979 630.929 508.875 634.06C548.371 639.543 589.161 648.004 628.796 640.295C610.857 632.197 592.307 643.441 574.436 634.505C553.007 639.112 530.002 633.323 508.206 630.469C483.434 619.435 456.689 611.85 433.489 597.514C404.485 586.926 448.477 611.099 456.312 613.062C474.431 623.344 436.382 607.785 431.009 603.514C415.829 594.995 413.894 596.777 429.509 605.42C432.652 607.258 435.758 609.193 439.054 610.764ZM395.828 580.217C417.845 588.372 395.732 564.741 385.656 566.105C381.189 558.353 368.58 553.454 377.473 549.293C361.483 554.847 360.717 528.181 353.204 531.996C336.281 526.652 346.62 507.724 326.455 496.091C324.617 483.843 306.429 473.226 300.64 454.757C298.078 445.295 280.083 418.143 291.135 443.414C300.54 467.74 317.089 488.588 330.866 509.395C341.554 529.21 354.191 549.934 373.661 562.293C380.23 568.596 386.561 578.24 395.828 580.217ZM332.426 510.592C336.448 517.785 333.189 507.264 332.426 510.592ZM422.202 589.986C427.073 587.802 415.187 587.232 422.202 589.986ZM434.141 594.343C432.905 588.329 428.686 597.71 434.141 594.343ZM449.104 600.578C456.215 593.798 438.124 596.303 449.104 600.578ZM474.738 614.868C479.066 608.48 460.89 612.463 474.738 614.868ZM425.516 580.552C436.564 573.398 411.222 580.452 425.516 580.552ZM436.731 586.146C436.41 582.373 432.737 587.841 436.731 586.146ZM492.801 621.145C501.818 626.839 545.45 633.615 518.131 623.483C513.55 624.444 467.473 610.443 492.801 621.145ZM403.79 551.812C402.914 548.028 389.789 547.622 403.79 551.812ZM429.884 567.039C436.688 562.293 415.786 563.376 429.884 567.039ZM451.844 580.495C461.599 576.822 436.036 576.808 451.844 580.495ZM393.156 540.247C403.733 548.36 435.826 541.291 409.355 535.406C397.317 528.989 370.18 524.593 388.677 539.275L393.156 540.247ZM466.722 585.144C471.132 577.641 448.239 580.855 466.722 585.144ZM444.369 567.384C470.227 574.691 422.619 551.017 437.985 564.684L441.395 566.23L444.369 567.384ZM489.184 593.285C513.678 593.52 467.057 589.904 489.184 593.285ZM383.736 526.079C382.774 521.515 377.697 526.456 383.736 526.079ZM530.615 616.525C531.267 608.288 522.624 622.663 530.615 616.525ZM425.541 551.673C424.051 547.33 417.888 551.491 425.541 551.673ZM386.059 523.214C400.117 522.366 366.799 517.022 386.059 523.214ZM339.284 492.985C337.532 486.237 323.99 480.865 339.284 492.985ZM462.072 570.908C460.861 571.546 459.5 567.969 462.072 570.908ZM538.489 617.807C538.253 613.311 534.327 619.503 538.489 617.807ZM455.31 563.921C456.689 558.132 443.315 562.165 455.31 563.921ZM398.375 527.835C408.842 526.72 381.606 520.763 398.375 527.835ZM494.682 587.677C510.992 581.218 478.789 584.532 494.682 587.677ZM444.594 553.679C463.38 556.098 422.231 540.889 440.461 552.314L444.594 553.679ZM509.891 593.827C527.441 583.349 521.651 618.391 539.661 596.791C557.417 583.823 524.323 612.823 546.202 599.103C562.038 588.511 585.416 604.126 600.184 609.207C610.8 608.69 621.129 618.391 632.023 612.488C652.983 606.838 591.028 604.112 607.266 594.105C588.088 599.687 573.923 587.453 564.485 575.165C542.97 570.195 518.103 559.201 507.358 540.151C502.976 533.012 513.678 541.167 503.574 529.477C490.617 517.952 484.147 504.856 475.447 490.844C465.051 485.304 463.825 468.979 462.781 490.302C462.867 476.842 450.23 467.782 447.141 471.541C447.084 458.583 460.669 465.082 451.163 455.495C449.118 442.063 442.381 428.065 440.361 412.896C437.219 405.588 439.916 389.934 429.62 406.479C425.876 423.972 428.38 384.993 434.212 397.836C441.865 384.729 431.455 386.272 431.038 388.081C436.022 377.019 434.198 361.318 429.73 367.304C432.388 355.572 433.934 324.135 425.765 329.714C430.717 317.44 435.16 273.573 413.641 290.303C404.93 290.428 389.832 293.464 382.706 297.012C405.069 309.342 380.451 301.465 371.334 299.502C370.151 310.914 361.134 305.986 349.862 306.097C367.871 308.323 341.094 324.509 330.784 318.221C317.367 324.623 342.348 340.626 331.047 345.579C332.44 353.025 310.505 342.882 312.219 360.111C299.204 354.624 310.437 380.539 316.95 371.771C339.092 377.771 332.537 391.423 333.092 404.406C329.487 411.962 315.279 386.635 329.932 387.804C318.368 369.028 317.146 381.013 307.541 389.738C305.314 390.365 332.034 402.15 315.265 407.968C330.018 410.252 330.449 423.167 333.456 431.336C342.32 440.574 340.496 421.132 351.116 432.241C344.393 422.344 315.543 404.363 338.771 410.127C338.647 400.177 334.567 392.146 341.693 392.339C348.75 379.577 334.304 423.819 350.197 407.594C354.593 405.674 355.694 394.818 363.6 408.624C375.079 419.925 367.747 428.105 351.547 417.751C354.44 427.592 373.215 431.097 369.681 446.477C373.422 460.005 378.656 455.021 383.219 454.241C386.796 467.38 388.831 457.721 388.998 451.458C405.376 454.967 401.535 464.651 406.669 471.416C417.956 476.507 390.512 436.887 409.886 459.503C430.272 477.915 417.539 485.596 399.241 482.646C410.82 481.712 414.546 498.304 429.036 497.72C442.242 504.008 451.192 528.141 428.423 518.091C420.531 510.966 392.571 502.184 415.412 515.725C436.482 525.494 453.237 531.326 473.569 543.589C488.112 553.971 494.4 565.867 499.912 568.222C487.681 574.064 463.063 563.558 481.347 560.345C469.935 558.271 457.106 552.496 468.029 566.704C477.324 574.471 500.941 573.648 505.188 574.524C501.597 582.43 495.433 583.057 505.327 583.669C494.29 589.555 508.875 590.474 509.891 593.827ZM487.318 530.076C480.595 523.047 478.856 509.897 486.121 521.333C489.851 522.837 498.048 542.837 487.318 530.076ZM560.841 576.779C565.031 576.501 560.966 579.964 560.841 576.779ZM476.715 512.847C479.134 521.041 476.448 502.226 476.715 512.847ZM469.408 503.021C480.053 507.642 460.947 486.697 469.408 503.021ZM380.84 441.899C385.81 440.574 383.291 450.386 380.84 441.899ZM451.331 480.099C454.908 489.704 454.377 468.644 451.331 480.099ZM401.535 445.473C408.871 451.405 398.03 439.156 401.535 445.473ZM444.259 459.168C436.257 441.244 449.938 449.37 446.04 462.103L444.259 459.168ZM370.572 410.028C366.995 404.142 361.081 386.884 362.987 381.612C364.697 390.198 381.231 418.546 371.085 393.358C359.884 372.245 384.488 400.202 387.021 405.478C388.204 410.712 380.102 404.046 385.585 416.334C375.581 402.346 379.685 424.057 370.572 410.028ZM347.803 394.33C353.008 403.711 348.736 380.65 347.803 394.33ZM358.045 397.865C366.325 412.254 362.93 387.54 358.045 397.865ZM333.399 378.801C324.923 370.364 318.785 362.601 333.801 373.567C339.576 373.788 320.944 355.907 335.194 367.888C350.168 370.617 342.583 392.453 333.399 378.801ZM346.342 378.466C351.269 373.581 348.957 383.268 346.342 378.466ZM354.315 381.013C363.375 386.884 346.841 367.026 354.315 381.013ZM338.479 365.886C313.833 343.936 369.443 377.351 342.501 369.947L338.479 365.886ZM409.106 406.91C398.432 400.522 406.266 361.892 409.915 388.306C420.282 384.95 409.341 401.958 417.065 401.791C415.857 412.518 412.391 416.376 409.106 406.91ZM435.228 422.358C437.426 430.321 436.271 410.712 435.228 422.358ZM430.692 417.862C431.861 412.896 430.803 423.723 430.692 417.862ZM343.307 358.675C327.47 336.825 389.329 380.774 353.453 364.215C349.709 363.228 345.188 362.879 343.307 358.675ZM393.615 385.342C396.957 388.388 392.115 366.944 393.615 385.342ZM431.804 409.846C434.754 399.368 432.028 416.779 431.804 409.846ZM345.744 350.338C355.153 348.322 384.737 366.858 357.572 355.629C354.554 352.287 348.109 353.805 345.744 350.338ZM426.556 390.614C427.561 371.8 432.181 379.385 426.599 393.315L426.556 390.614ZM352.744 343.786C356.585 338.161 342.555 318.36 354.761 336.686C360.037 340.876 370.027 343.701 361.206 345.468C375.079 357.702 357.825 348.781 352.744 343.786ZM422.562 384.743C425.209 363.31 424.903 397.295 422.562 384.743ZM344.728 323.996C347.664 322.742 346.285 327.904 344.728 323.996ZM362.944 334.837C371.587 345.803 367.633 324.997 362.944 334.837ZM414.311 363.406C415.284 368.903 414.268 359.637 414.311 363.406ZM411.333 356.826C417.97 366.135 404.207 339.233 411.333 356.826ZM406.961 345.286C411.026 354.418 405.768 338.022 406.961 345.286ZM414.087 333.708C409.188 325.093 420.268 295.715 421.508 313.935C416.342 328.128 420.018 336.063 423.606 317.024C430.261 302.05 422.174 346.597 414.087 333.708ZM421.408 290.026C423.538 287.407 421.882 293.182 421.408 290.026ZM409.177 530.967C409.551 532.566 406.281 528.434 409.177 530.967ZM434.365 543.7C448.377 547.305 448.31 541.526 435.644 539.802C428.84 533.471 407.339 526.748 426.584 539.022C427.853 542.253 431.875 542.168 434.365 543.7ZM384.627 510.659C392.336 516.424 413.698 526.969 395.621 512.861C401.717 505.775 383.957 502.005 389.846 497.26C374.858 488.086 378.014 488.909 388.524 489.201C370.515 481.142 391.125 481.755 390.152 477.622C383.209 476.258 355.651 465.374 371.865 478.513C355.388 470.119 367.939 481.645 362.958 480.433C346.103 475.841 377.961 493.266 360.286 488.938C369.945 496.59 386.298 508.561 364.362 497.036C361.483 501.197 380.063 507.503 384.627 510.659ZM410.969 525.801C442.994 536.115 395.258 513.178 410.969 525.801ZM545.824 607.493C546.241 601.134 541.453 612.919 545.824 607.493ZM559.687 613.325C567.076 606.171 559.993 624.737 571.932 611.572C572.056 602.149 571.572 596.584 558.212 608.035C554.521 610.083 552.882 618.751 559.687 613.325ZM339.662 475.146C337.393 466.225 323.755 466.265 339.662 475.146ZM354.454 484.844C348.957 475.731 334.845 476.593 354.454 484.844ZM438.666 535.627C446.892 542.934 476.423 540.985 448.645 536.532C444.537 530.45 422.537 531.911 438.666 535.627ZM554.41 607.119C567.061 596.499 542.151 611.85 554.41 607.119ZM580.728 625.196C580.81 621.787 575.273 626.685 580.728 625.196ZM580.771 620.422C594.783 605.587 567.2 621.299 580.771 620.422ZM303.255 444.668C291.316 427.634 295.837 419.978 284.316 406.062C282.128 395.417 264.553 371.283 275.227 396.849C284.996 411.809 287.893 434.966 303.255 444.668ZM576.371 615.705C602.161 599.046 565.797 608.455 576.371 615.705ZM596.051 623.415C608.966 612.335 587.882 621.103 596.051 623.415ZM335.276 456.314C338.967 450.817 325.732 455.605 335.276 456.314ZM591.943 618.153C604.441 610.097 589.064 611.334 589.677 618.89L591.943 618.153ZM422.327 511.244C421.896 505.789 415.718 511.703 422.327 511.244ZM432.805 517.272C429.467 510.535 427.685 518.33 432.805 517.272ZM611.998 623.596C628.015 612.043 602.3 621.381 608.645 625.795L611.998 623.596ZM605.863 620.632C618.916 609.706 592.096 625.474 605.863 620.632ZM637.2 641.492C645.957 635.631 626.555 639.6 637.2 641.492ZM343.307 452.349C355.039 454.978 390.22 481.253 369.471 454.173C358.84 451.027 365.214 425.044 354.372 429.637C361.651 441.8 360.354 446.962 345.074 439.309C325.885 429.929 334.289 443.944 338.048 447.813C332.925 448.982 344.81 452.253 343.307 452.349ZM289.827 410.113C291.926 401.413 270.467 362.295 279.695 390.504C283.019 396.418 282.673 407.619 289.827 410.113ZM387.993 470.636C387.701 469.913 381.94 465.584 387.993 470.636ZM402.871 474.103C402.871 464.889 386.422 470.358 402.871 474.103ZM531.88 555.417C529.418 549.126 522.154 555.278 531.88 555.417ZM538.072 559.938C537.153 556.418 534.495 560.622 538.072 559.938ZM589.203 592.156C594.116 588.525 583.065 591.686 589.203 592.156ZM316.533 416.932C330.602 411.488 301.459 413.049 316.533 416.932ZM520.522 545.438C520.358 536.336 511.547 547.708 520.522 545.438ZM310.979 403.975C320.01 400.928 302.614 401.972 310.979 403.975ZM337.197 416.679C337.043 413.69 334.428 417.823 337.197 416.679ZM657.076 612.837C668.694 610.486 695.179 618.751 699.451 609.763C685.339 609.413 650.646 599.798 649.003 612.043L652.092 612.531L657.076 612.837ZM345.533 418.781C345.744 409.554 338.34 418.436 345.533 418.781ZM276.592 370.952C273.46 353.374 264.678 368.291 276.592 370.952ZM293.026 375.085C293.237 369.434 277.981 370.004 293.026 375.085ZM302.421 379.706C300.305 382.474 299.706 377.504 302.421 379.706ZM361.551 417.627C364.337 415.065 354.957 415.735 361.551 417.627ZM296.172 369.295C294.573 356.017 277.119 367.304 296.172 369.295ZM262.451 347.417C261.978 341.293 259.167 349.725 262.451 347.417ZM267.475 343.633C266.655 336.365 263.16 344.549 267.475 343.633ZM295.171 360.164C306.889 355.572 273.834 350.645 292.777 359.302L295.171 360.164ZM665.969 589.206C673.468 582.333 656.449 587.079 665.969 589.206ZM710.766 612.42C713.773 603.542 703.195 613.589 710.766 612.42ZM298.007 345.65C299.247 337.049 288.712 347.36 298.007 345.65ZM258.582 319.236C256.466 307.101 256.758 285.793 277.009 292.99C249.982 298.362 295.727 326.597 289.952 304.301C301.32 304.861 312.19 297.582 306.219 308.616C328.625 306.154 344.144 286.726 365.784 289.455C382.635 287.215 401.061 285.529 419.224 278.739C434.155 277.667 448.531 261.592 440.351 252.058C419.99 250.334 398.667 252.881 376.165 257.363C351.226 262.539 328.571 272.39 303.408 276.623C278.872 279.922 308.335 285.697 301.306 286.99C288.516 291.429 316.572 294.422 299.649 299.11C289.2 297.122 278.316 293.531 282.784 282.508C259.291 285.572 238.638 295.313 257.204 319.222L258.582 319.236ZM315.211 290.4C320.708 270.11 344.714 307.101 324.228 293.1C321.792 291.262 317.755 289.773 315.211 290.4ZM316.28 280.559C324.228 274.645 320.498 283.887 316.28 280.559ZM326.37 280.727C327.096 271.389 349.488 285.668 330.061 284.083L326.37 280.727ZM340.175 275.176C345.227 269.273 341.639 280.406 340.175 275.176ZM343.713 272.811C352.117 262.721 391.264 266.366 362.609 271.82C354.928 266.031 349.043 275.23 343.713 272.811ZM394.812 264.933C420.211 274.717 393.548 237.362 394.812 264.933ZM409.316 264.848C414.617 250.961 429.898 259.269 411.778 262.051C412.166 263.54 411.236 269.234 409.316 264.848ZM292.289 338.524C308.125 328.823 275.477 330.106 292.289 338.524ZM304.007 341.766C309.561 335.867 291.926 339.372 304.007 341.766ZM269.495 317.287C278.541 310.329 258.778 314.644 269.495 317.287ZM737.208 609.887C737.472 601.814 730.289 613.518 737.208 609.887ZM689.682 577.445C691.032 568.165 683.572 578.254 689.682 577.445ZM750.276 613.019C762.927 613.062 788.614 609.079 761.089 609.093C756.76 609.763 735.915 609.624 750.276 613.019ZM314.306 336.073C324.549 335.379 330.324 324.787 312.315 325.385C284.412 322.507 336.933 334.947 308.738 331.385C304.954 333.889 314.082 336.772 314.306 336.073ZM323.324 340.641C322.251 334.071 320.149 344.132 323.324 340.641ZM334.026 312.111C338.465 306.599 327.873 310.636 334.026 312.111ZM299.956 255.175C318.243 248.969 343.239 241.983 351.868 258.239C343.086 247.676 348.319 237.266 356.613 252.728C368.345 268.357 374.217 245.617 366.589 240.369C375.289 251.167 385.168 256.276 372.407 241.053C386.283 224.365 344.643 243.237 335.18 243.041C330.631 245.086 288.17 253.868 299.956 255.175ZM310.672 234.665C321.097 226.802 346.73 239.353 330.281 226.841C328.668 225.423 294.266 236.332 310.672 234.665ZM348.679 236.236C360.871 236.542 343.421 219.841 357.949 227.411C355.569 219.62 341.027 218.159 333.915 215.042C329.893 222.167 342.095 236.332 348.679 236.236ZM317.338 201.735C321.556 196.017 309.935 204.646 317.338 201.735ZM332.872 205.451C352.534 202.85 327.859 196.989 328.903 205.244L332.872 205.451ZM303.868 182.767C290.019 164.69 329.907 185.803 315.835 166.874C303.992 157.454 292.624 177.494 303.868 182.767ZM481.514 278.447C487.863 267.199 455.31 263.277 477.242 274.464C479.259 275.133 478.803 279.223 481.514 278.447Z" fill="white"/>
<path d="M352.61 697.332C351.207 702.879 350.336 712.186 350.009 725.248C350.009 727.816 348.854 729.1 346.538 729.1C344.219 729.1 342.607 727.979 341.694 725.747C339.212 719.707 336.861 715.494 334.62 713.09C331.975 710.282 328.459 708.583 324.074 708.006C319.36 707.258 307.616 706.887 288.84 706.887C284.541 706.887 281.724 707.344 280.405 708.257C279.578 708.833 279.166 710.075 279.166 711.978V768.184C279.166 770.088 280.363 770.992 282.757 770.915C290.124 770.829 300.791 770.328 314.767 769.424C317.498 769.089 319.342 768.202 320.291 766.753C321.248 765.306 322.179 761.567 323.083 755.525C323.659 752.216 325.607 750.933 328.915 751.683C331.726 752.261 332.932 753.544 332.517 755.525C330.199 766.779 329.449 781.419 330.276 799.452C330.365 801.598 329.001 802.76 326.185 802.926C323.866 803.175 322.419 801.933 321.841 799.202C319.697 788.864 315.698 783.34 309.873 782.632C304.04 781.935 294.545 781.582 281.396 781.582C279.907 781.582 279.166 782.116 279.166 783.193V839.028C279.166 843.164 280.69 845.981 283.749 847.463C286.154 848.705 291.322 849.823 299.258 850.816C303.317 851.228 305.09 853.013 304.601 856.15C304.1 858.88 300.465 859.957 293.675 859.379C274.072 857.804 257.899 857.89 245.165 859.63C241.605 860.12 239.832 858.673 239.832 855.287C239.832 853.132 241.605 851.892 245.165 851.564C253.272 850.65 257.322 843.535 257.322 830.222V724.006C257.322 718.554 256.349 714.356 254.41 711.418C252.462 708.48 248.842 705.809 243.553 703.413C240.244 701.924 239.005 699.899 239.832 697.332C240.244 695.763 240.908 694.892 241.813 694.729C242.64 694.48 244.837 694.643 248.386 695.227C253.6 696.054 265.887 696.469 285.238 696.469C308.073 696.469 327.795 695.968 344.427 694.978C349.965 694.643 352.74 695.099 352.74 696.339C352.74 696.677 352.698 697.003 352.61 697.332Z" fill="white"/>
<path d="M433.074 854.839C433.074 858.148 431.212 859.595 427.491 859.18C416.083 858.104 401.935 858.267 385.063 859.672C381.668 860.007 379.583 859.921 378.791 859.432C378.006 858.931 377.618 857.57 377.618 855.329C377.618 853.348 379.868 851.676 384.374 850.306C388.89 848.945 391.137 844.869 391.137 838.088V725.8C391.137 719.096 390.165 714.175 388.226 711.03C386.278 707.886 382.866 705.447 377.989 703.715C375.421 702.802 374.137 701.518 374.137 699.864C374.137 697.382 375.999 695.521 379.72 694.281C385.347 692.461 391.181 689.653 397.221 685.844C402.184 682.864 405.329 681.381 406.646 681.381C409.706 681.381 411.241 683.483 411.241 687.705C411.241 687.379 411.076 691.515 410.74 700.113C410.5 708.299 410.414 716.363 410.5 724.308L410.99 835.106C410.99 840.155 412.231 843.819 414.713 846.093C417.194 848.367 421.458 849.876 427.491 850.617C431.212 851.03 433.074 852.435 433.074 854.839Z" fill="white"/>
<path d="M545.294 847.522C545.294 849.263 542.131 851.883 535.807 855.397C529.474 858.913 524.407 860.671 520.607 860.671C517.375 860.671 514.525 859.103 512.044 855.957C509.562 852.814 507.82 851.246 506.829 851.246C506.088 851.246 502.16 852.942 495.041 856.328C487.934 859.723 480.774 861.421 473.579 861.421C466.798 861.421 461.127 859.432 456.579 855.468C451.616 851.08 449.134 845.127 449.134 837.596C449.134 823.285 465.515 813.03 498.273 806.828C503.891 805.751 506.752 803.475 506.829 800.003L507.081 792.06C507.579 778.496 501.582 771.716 489.088 771.716C485.53 771.716 482.162 774.894 478.972 781.262C475.794 787.639 471.219 791.067 465.263 791.568C458.482 792.223 455.088 789.371 455.088 783.003C455.088 779.03 460.137 774.405 470.226 769.104C480.816 763.565 490.994 760.79 500.754 760.79C517.541 760.79 525.854 768.777 525.691 784.743L525.19 835.856C525.113 841.234 527.39 843.92 532.015 843.92C532.928 843.92 534.669 843.715 537.227 843.301C539.797 842.888 541.286 842.681 541.701 842.681C544.096 842.681 545.294 844.3 545.294 847.522ZM507.081 819.235C507.167 817.166 506.684 815.796 505.649 815.141C504.615 814.48 502.987 814.349 500.754 814.764C480.816 818.322 470.848 824.818 470.848 834.246C470.848 843.757 476.016 848.513 486.357 848.513C490.493 848.513 494.759 847.73 499.135 846.161C504.271 844.335 506.829 842.147 506.829 839.579L507.081 819.235Z" fill="white"/>
<path d="M637.542 833.247C637.542 842.017 634.162 848.989 627.426 854.158C620.687 859.328 611.484 861.913 599.818 861.913C592.047 861.913 584.265 861.086 576.494 859.432C569.79 857.94 565.904 856.579 564.827 855.338C564.163 854.175 563.837 848.515 563.837 838.338C563.837 833.952 564.827 831.678 566.817 831.515C568.8 831.263 570.496 832.342 571.901 834.738C578.104 845.577 588.116 850.997 601.929 850.997C613.587 850.997 619.421 846.938 619.421 838.829C619.421 835.28 618.102 832.298 615.448 829.903C612.552 827.172 606.936 823.984 598.578 820.347C586.497 814.971 578.433 810.258 574.383 806.199C569.996 801.9 567.807 796.11 567.807 788.828C567.807 779.893 571.237 772.949 578.104 767.986C584.472 763.186 592.993 760.79 603.66 760.79C610.364 760.79 616.483 761.324 622.03 762.403C627.986 763.479 631.087 764.798 631.337 766.373C631.992 771.001 633.362 777.704 635.431 786.477C635.68 787.544 634.515 788.416 631.957 789.078C629.226 789.655 627.408 789.199 626.495 787.717C619.964 777.04 611.692 771.707 601.68 771.707C590.348 771.707 584.68 775.344 584.68 782.626C584.68 786.682 586.213 789.905 589.272 792.3C592.003 794.369 598.413 797.601 608.504 801.986C619.092 806.534 626.288 810.628 630.097 814.263C635.06 818.977 637.542 825.31 637.542 833.247Z" fill="white"/>
<path d="M783.512 854.96C783.512 857.854 781.564 859.39 777.678 859.553C771.887 859.639 764.313 860.051 754.973 860.793C750.339 861.706 747.03 861.13 745.047 859.061C731.976 844.999 720.887 830.273 711.788 814.885C711.047 813.566 710.098 812.902 708.936 812.902C707.531 812.902 705.093 814.144 701.621 816.626C697.726 818.772 695.787 821.838 695.787 825.802C695.787 828.619 695.864 832.669 696.036 837.969C696.202 843.259 697.519 846.731 700 848.385C701.741 849.55 705.757 850.454 712.037 851.118C715.924 851.616 717.872 853.063 717.872 855.459C717.872 857.365 717.561 858.545 716.941 858.993C716.321 859.449 714.682 859.553 712.037 859.304C703.766 858.563 689.79 858.975 670.103 860.543C665.14 860.958 662.451 860.336 662.036 858.682C661.873 858.106 661.787 857.279 661.787 856.2C661.787 853.641 664.313 851.694 669.362 850.377C673.91 849.212 676.184 843.878 676.184 834.367V725.921C676.184 719.14 675.522 714.426 674.195 711.782C672.377 708.387 668.568 705.74 662.777 703.836C660.055 702.932 658.686 701.648 658.686 699.994C658.686 697.59 660.633 695.728 664.518 694.411C670.723 692.342 676.632 689.49 682.259 685.846C686.81 682.872 689.626 681.381 690.694 681.381C694.091 681.381 695.787 683.528 695.787 687.836C695.787 687.251 695.745 691.352 695.657 700.115C695.58 706.155 695.538 714.263 695.538 724.439L695.787 802.107C695.787 804.26 696.365 805.33 697.519 805.33C698.761 805.33 700.664 804.26 703.232 802.107C710.098 796.729 718.536 789.7 728.539 781.013C730.529 778.946 731.519 777.292 731.519 776.05C731.519 773.82 728.168 772.243 721.474 771.338C718.578 771.001 717.208 769.391 717.371 766.494C717.62 763.6 719.069 762.359 721.714 762.773C727.676 763.6 736.363 764.057 747.769 764.143C755.714 764.22 763.616 764.264 771.475 764.264C774.034 764.35 775.317 765.875 775.317 768.857C775.317 771.665 773.292 773.198 769.243 773.449C762.866 773.69 756.868 775.137 751.252 777.79C743.393 781.342 734.991 787.589 726.057 796.524C725.402 797.023 725.065 797.643 725.065 798.384C725.065 799.54 726.47 802.315 729.289 806.7C739.628 822.416 749.39 834.281 758.567 842.31C764.443 847.353 769.94 849.876 775.066 849.876C778.875 849.876 781.236 850.143 782.14 850.686C783.055 851.222 783.512 852.651 783.512 854.96Z" fill="white"/>
</svg>
