<svg width="1024" height="1024" viewBox="0 0 1024 1024" fill="none" xmlns="http://www.w3.org/2000/svg">
<g clip-path="url(#clip0_92_61)">
<g clip-path="url(#clip1_92_61)">
<mask id="mask0_92_61" style="mask-type:luminance" maskUnits="userSpaceOnUse" x="-1292" y="-437" width="3609" height="1898">
<path d="M2316 -436.904H-1292V1460.9H2316V-436.904Z" fill="white"/>
</mask>
<g mask="url(#mask0_92_61)">
<path d="M512.47 467.896C536.864 467.896 556.603 487.551 556.603 511.754C556.603 535.951 536.864 555.614 512.47 555.614C488.076 555.614 468.337 535.951 468.337 511.754C468.337 487.551 488.076 467.896 512.47 467.896Z" fill="#139FCD" stroke="#139FCD" stroke-width="7.216"/>
<path d="M512.468 608.998C653.945 608.998 768.636 565.464 768.636 511.755C768.636 458.046 653.945 414.505 512.468 414.505C370.991 414.505 256.3 458.046 256.3 511.755C256.3 565.464 370.991 608.998 512.468 608.998Z" stroke="#139FCD" stroke-width="21.648"/>
<path d="M427.766 560.376C498.504 682.197 593.77 759.185 640.551 732.327C687.332 705.476 667.914 584.947 597.176 463.126C526.437 341.306 431.164 264.321 384.383 291.176C337.602 318.027 357.027 438.556 427.766 560.376Z" stroke="#139FCD" stroke-width="21.648"/>
<path d="M427.766 463.126C357.027 584.947 337.602 705.476 384.383 732.327C431.164 759.185 526.437 682.197 597.176 560.376C667.914 438.556 687.332 318.027 640.551 291.176C593.77 264.321 498.504 341.306 427.766 463.126Z" stroke="#139FCD" stroke-width="21.648"/>
</g>
</g>
</g>
<defs>
<clipPath id="clip0_92_61">
<rect width="1024" height="1024" fill="white"/>
</clipPath>
<clipPath id="clip1_92_61">
<rect width="3608" height="1897.81" fill="white" transform="translate(-1292 -436.904)"/>
</clipPath>
</defs>
</svg>
