<svg width="1024" height="1024" viewBox="0 0 1024 1024" fill="none" xmlns="http://www.w3.org/2000/svg">
<g clip-path="url(#clip0_92_61)">
<path d="M366.916 569.873C361.603 569.824 356.299 569.412 351.042 568.638C345.344 567.863 339.694 566.77 334.119 565.365V556.779C339.634 558.174 345.222 559.267 350.857 560.053C355.969 560.823 361.129 561.236 366.298 561.288C373.449 561.741 380.56 559.925 386.619 556.1C388.923 554.415 390.773 552.184 392.002 549.608C393.231 547.031 393.801 544.189 393.66 541.338C393.803 538.334 393.175 535.343 391.834 532.651C390.493 529.958 388.485 527.654 386.001 525.959C383.535 524.175 380.859 522.703 378.033 521.573C374.822 520.379 371.383 519.247 367.719 518.176C362.789 516.763 357.977 514.966 353.327 512.803C349.747 511.18 346.452 508.99 343.569 506.318C341.113 504.015 339.212 501.185 338.01 498.041C336.781 494.593 336.174 490.954 336.219 487.294C336.162 483.181 337.028 479.108 338.751 475.373C340.44 471.786 342.909 468.62 345.977 466.109C349.277 463.323 353.098 461.224 357.219 459.932C361.981 458.606 366.915 458.003 371.857 458.141C381.037 458.324 390.17 459.505 399.095 461.662V470.432C394.559 469.266 389.961 468.359 385.322 467.715C381.229 467.134 377.102 466.825 372.969 466.788C366.181 466.434 359.474 468.394 353.945 472.347C351.567 474.036 349.637 476.281 348.324 478.886C347.011 481.491 346.354 484.377 346.41 487.294C346.363 489.845 346.804 492.381 347.707 494.768C348.64 497.139 350.121 499.256 352.03 500.944C354.376 502.968 357.022 504.614 359.875 505.823C363.883 507.526 368.012 508.93 372.227 510.023C376.798 511.382 381.039 512.844 384.951 514.409C388.626 515.81 392.063 517.768 395.142 520.215C398 522.528 400.319 525.436 401.936 528.738C403.686 532.615 404.531 536.839 404.407 541.091C404.636 545.183 403.881 549.271 402.204 553.011C400.528 556.75 397.979 560.034 394.772 562.585C386.559 568.054 376.754 570.62 366.916 569.873Z" fill="white"/>
<path d="M455.979 569.565C451.111 569.909 446.227 569.192 441.662 567.465C437.098 565.737 432.964 563.04 429.544 559.559C423.072 551.32 419.862 540.985 420.526 530.529C419.851 519.528 422.968 508.628 429.358 499.647C432.481 495.975 436.42 493.084 440.861 491.207C445.301 489.33 450.119 488.519 454.929 488.838C458.94 488.567 462.959 489.222 466.676 490.754C470.392 492.285 473.706 494.652 476.361 497.67C481.607 505.081 484.177 514.054 483.65 523.118C483.65 525.341 483.65 527.235 483.65 528.8C483.597 530.133 483.411 531.457 483.094 532.753H430.161C429.951 540.585 432.51 548.239 437.388 554.37C439.999 556.854 443.101 558.764 446.494 559.976C449.887 561.189 453.497 561.678 457.091 561.412C460.861 561.388 464.622 561.037 468.332 560.362C472.389 559.631 476.377 558.557 480.253 557.15L480.994 564.994C476.996 566.524 472.859 567.662 468.641 568.391C464.464 569.161 460.226 569.554 455.979 569.565ZM454.62 496.126C439.467 496.126 431.355 505.885 430.285 525.403H474.447C475.058 517.62 473.384 509.827 469.629 502.982C467.912 500.662 465.634 498.816 463.009 497.617C460.384 496.418 457.498 495.905 454.62 496.126Z" fill="white"/>
<path d="M505.516 450.235H515.274V568.268H505.516V450.235Z" fill="white"/>
<path d="M572.962 569.565C568.094 569.909 563.21 569.192 558.646 567.465C554.082 565.737 549.947 563.04 546.527 559.559C540.077 551.311 536.889 540.977 537.571 530.529C536.896 519.528 540.013 508.628 546.403 499.647C549.526 495.975 553.465 493.084 557.906 491.207C562.346 489.33 567.164 488.519 571.974 488.838C575.985 488.567 580.004 489.222 583.721 490.754C587.437 492.285 590.751 494.652 593.406 497.67C598.542 505.12 601.003 514.09 600.386 523.118C600.386 525.341 600.386 527.235 600.386 528.8C600.333 530.133 600.147 531.457 599.83 532.753H547.145C546.94 540.584 549.498 548.237 554.371 554.37C556.989 556.862 560.101 558.776 563.506 559.989C566.911 561.202 570.532 561.687 574.136 561.412C577.906 561.388 581.667 561.037 585.377 560.362C589.434 559.63 593.422 558.556 597.297 557.15L598.039 564.994C594.041 566.524 589.904 567.662 585.686 568.391C581.489 569.165 577.23 569.557 572.962 569.565ZM571.665 496.126C556.512 496.126 548.4 505.885 547.33 525.403H591.492C592.103 517.62 590.429 509.827 586.674 502.982C584.957 500.662 582.679 498.816 580.054 497.617C577.429 496.418 574.543 495.905 571.665 496.126Z" fill="white"/>
<path d="M622.063 489.579H630.216L630.958 498.782H631.699C635.569 496.929 639.111 495.323 642.322 493.964C645.534 492.606 648.478 491.494 651.155 490.629C653.575 489.81 656.052 489.17 658.566 488.714C660.811 488.338 663.084 488.152 665.361 488.158C668.141 487.949 670.935 488.312 673.57 489.226C676.205 490.139 678.624 491.584 680.678 493.47C684.457 498 686.299 503.836 685.805 509.714V568.453H675.984V512.864C676.356 508.474 675.152 504.094 672.587 500.511C671.209 499.189 669.566 498.174 667.767 497.535C665.967 496.896 664.052 496.648 662.149 496.806C657.432 496.916 652.763 497.77 648.313 499.338C642.657 501.244 637.146 503.556 631.822 506.256V568.02H622.063V489.579Z" fill="white"/>
<path d="M716.194 471.976C715.337 472.1 714.464 472.029 713.638 471.769C712.813 471.508 712.057 471.064 711.428 470.47C710.798 469.876 710.311 469.147 710.003 468.339C709.694 467.53 709.572 466.662 709.647 465.8C709.647 464.063 710.336 462.398 711.564 461.17C712.792 459.942 714.457 459.253 716.194 459.253C717.93 459.253 719.595 459.942 720.823 461.17C722.051 462.398 722.741 464.063 722.741 465.8C722.815 466.662 722.693 467.53 722.385 468.339C722.076 469.147 721.589 469.876 720.959 470.47C720.33 471.064 719.574 471.508 718.749 471.769C717.924 472.029 717.05 472.1 716.194 471.976ZM711.252 489.579H721.011V568.267H711.252V489.579Z" fill="white"/>
<path d="M765.976 569.688C753.047 569.688 746.582 562.544 746.582 548.256V489.579H756.341V545.168C755.924 549.501 756.967 553.849 759.306 557.521C760.548 558.85 762.081 559.877 763.784 560.519C765.487 561.162 767.315 561.404 769.126 561.226C774.372 561.199 779.567 560.194 784.444 558.262C789.591 556.285 794.923 553.938 800.441 551.221V489.579H810.385V568.268H802.232L801.491 558.509H800.935L790.25 563.512C787.203 564.912 784.361 566.085 781.726 567.032C779.253 567.915 776.712 568.597 774.129 569.071C771.436 569.522 768.707 569.728 765.976 569.688Z" fill="white"/>
<path d="M836.204 489.58H844.234L845.098 498.783H845.654C850.758 495.695 856.085 492.991 861.589 490.691C865.513 489.085 869.703 488.226 873.942 488.159C877.808 487.654 881.731 488.456 885.088 490.437C888.446 492.418 891.044 495.464 892.472 499.091H893.213C896.507 497.033 899.492 495.324 902.169 493.965C904.58 492.725 907.054 491.612 909.581 490.63C911.581 489.818 913.648 489.177 915.757 488.715C917.793 488.33 919.862 488.144 921.933 488.159C924.675 487.959 927.429 488.315 930.03 489.207C932.63 490.098 935.024 491.507 937.066 493.347C940.845 497.877 942.687 503.713 942.192 509.591V568.33H932.557V512.741C932.986 508.346 931.777 503.947 929.16 500.388C927.77 499.087 926.124 498.09 924.326 497.462C922.529 496.835 920.62 496.59 918.722 496.744C914.947 496.866 911.223 497.661 907.728 499.091C903.1 500.959 898.638 503.211 894.386 505.824V568.206H884.504V512.618C884.933 508.222 883.724 503.823 881.107 500.265C879.718 498.963 878.071 497.966 876.273 497.339C874.476 496.711 872.567 496.467 870.669 496.621C866.721 496.736 862.827 497.574 859.181 499.091C854.59 500.953 850.168 503.205 845.963 505.824V568.268H836.204V489.58Z" fill="white"/>
<path d="M214.047 539.856C210.188 539.739 206.425 541.077 203.507 543.606C200.589 546.135 198.729 549.669 198.297 553.506C198.278 553.58 198.276 553.658 198.292 553.733C198.308 553.808 198.342 553.878 198.39 553.938C198.437 553.998 198.499 554.046 198.568 554.078C198.638 554.111 198.714 554.126 198.791 554.124H229.365C229.435 554.124 229.505 554.11 229.569 554.081C229.634 554.052 229.691 554.01 229.738 553.958C229.785 553.905 229.82 553.843 229.84 553.776C229.861 553.709 229.868 553.638 229.859 553.568C229.558 549.661 227.73 546.031 224.77 543.464C221.809 540.897 217.957 539.6 214.047 539.856Z" fill="white"/>
<path d="M279.58 437.326L214.727 510.147C214.542 510.347 214.317 510.507 214.067 510.616C213.818 510.726 213.548 510.782 213.275 510.782C213.003 510.782 212.733 510.726 212.483 510.616C212.233 510.507 212.009 510.347 211.824 510.147L178.718 475.991C178.437 475.641 178.284 475.205 178.284 474.756C178.284 474.307 178.437 473.871 178.718 473.521L189.65 459.5C189.833 459.245 190.074 459.037 190.354 458.894C190.633 458.751 190.942 458.676 191.256 458.676C191.57 458.676 191.879 458.751 192.159 458.894C192.438 459.037 192.679 459.245 192.862 459.5L211.391 480.006C211.577 480.227 211.809 480.404 212.07 480.526C212.331 480.648 212.616 480.711 212.905 480.711C213.193 480.711 213.478 480.648 213.739 480.526C214.001 480.404 214.232 480.227 214.418 480.006L266.053 409.224C266.197 409.014 266.282 408.771 266.299 408.517C266.317 408.264 266.266 408.011 266.153 407.784C266.039 407.557 265.867 407.365 265.654 407.227C265.441 407.089 265.195 407.011 264.941 407H83.1061C82.6966 407 82.3039 407.163 82.0143 407.452C81.7247 407.742 81.562 408.135 81.562 408.544V615.456C81.562 615.865 81.7247 616.258 82.0143 616.548C82.3039 616.837 82.6966 617 83.1061 617H280.753C281.163 617 281.555 616.837 281.845 616.548C282.135 616.258 282.297 615.865 282.297 615.456V438.253C282.42 437.893 282.395 437.498 282.227 437.156C282.059 436.815 281.762 436.554 281.402 436.431C281.041 436.308 280.647 436.333 280.305 436.501C279.964 436.669 279.703 436.966 279.58 437.326ZM137.521 593.962C124.546 594.616 111.827 590.184 102.068 581.609C101.76 581.259 101.589 580.809 101.589 580.343C101.589 579.876 101.76 579.426 102.068 579.076L109.788 568.268C109.916 568.046 110.086 567.853 110.29 567.698C110.493 567.544 110.726 567.431 110.973 567.368C111.221 567.305 111.478 567.292 111.731 567.329C111.984 567.367 112.226 567.455 112.444 567.588C119.497 574.127 128.768 577.747 138.386 577.718C148.515 577.718 153.456 573.024 153.456 568.082C153.456 552.765 103.55 563.265 103.55 530.653C103.55 516.262 115.903 504.279 136.409 504.279C148.177 503.861 159.698 507.723 168.836 515.15C169.179 515.507 169.371 515.983 169.371 516.478C169.371 516.973 169.179 517.449 168.836 517.806L161.238 528.368C161.082 528.578 160.883 528.753 160.656 528.884C160.428 529.014 160.176 529.096 159.916 529.125C159.655 529.154 159.391 529.129 159.141 529.052C158.89 528.975 158.658 528.847 158.459 528.676C151.721 523.321 143.348 520.443 134.741 520.524C126.836 520.524 122.388 524.044 122.388 529.232C122.388 543.006 172.171 533.803 172.171 566.291C172.171 581.979 160.868 593.962 137.459 593.962H137.521ZM246.35 563.882C246.359 564.112 246.32 564.341 246.236 564.554C246.152 564.768 246.025 564.962 245.863 565.125C245.701 565.287 245.507 565.414 245.293 565.498C245.079 565.582 244.85 565.62 244.621 565.612H198.915C198.842 565.619 198.771 565.642 198.706 565.677C198.642 565.712 198.585 565.76 198.539 565.817C198.493 565.875 198.459 565.941 198.439 566.012C198.418 566.082 198.412 566.156 198.421 566.229C199.162 570.5 201.475 574.339 204.904 576.991C208.333 579.643 212.63 580.916 216.95 580.559C222.619 580.439 228.124 578.633 232.762 575.371C232.943 575.219 233.154 575.107 233.382 575.043C233.609 574.979 233.847 574.964 234.081 574.999C234.314 575.034 234.538 575.119 234.736 575.247C234.935 575.374 235.104 575.543 235.233 575.741L240.791 583.832C241.023 584.192 241.113 584.624 241.045 585.046C240.977 585.468 240.754 585.85 240.421 586.118C233.082 591.473 224.179 594.253 215.097 594.024C210.56 594.277 206.021 593.579 201.769 591.975C197.518 590.371 193.648 587.896 190.409 584.709C187.17 581.523 184.633 577.694 182.96 573.469C181.287 569.245 180.515 564.717 180.694 560.176C180.568 555.745 181.342 551.334 182.969 547.21C184.596 543.086 187.042 539.335 190.159 536.183C193.277 533.03 197.001 530.543 201.107 528.871C205.213 527.199 209.615 526.376 214.047 526.453C233.256 526.453 246.288 540.844 246.288 561.906L246.35 563.882Z" fill="white"/>
</g>
<defs>
<clipPath id="clip0_92_61">
<rect width="860.877" height="210" fill="white" transform="translate(81.562 407)"/>
</clipPath>
</defs>
</svg>
